<svg xmlns="http://www.w3.org/2000/svg" viewBox="0 0 24 24"><path d="M24 11.779c0-1.459-1.192-2.645-2.657-2.645-.715 0-1.363.286-1.84.746-1.81-1.191-4.259-1.949-6.971-2.046l1.483-4.669 4.016.941-.006.058c0 1.193.975 2.163 2.174 2.163 1.198 0 2.172-.97 2.172-2.163s-.975-2.164-2.172-2.164c-.92 0-1.704.574-2.021 1.379l-4.329-1.015c-.189-.046-.381.063-.44.249l-1.654 5.207c-2.838.034-5.409.798-7.3 2.025-.474-.438-1.103-.712-1.799-.712-1.465 0-2.656 1.187-2.656 2.646 0 .97.533 1.811 1.317 2.271-.052.282-.086.567-.086.857 0 3.911 4.808 7.093 10.719 7.093s10.72-3.182 10.72-7.093c0-.288-.03-.571-.084-.847.802-.456 1.34-1.307 1.34-2.29zM7.054 14.469c0-.821.668-1.489 1.489-1.489.821 0 1.489.668 1.489 1.489 0 .82-.668 1.488-1.489 1.488-.821.001-1.489-.667-1.489-1.488zm8.582 3.847c-.874.874-2.378 1.298-4.6 1.298l-.012-.002-.012.002c-2.22 0-3.725-.424-4.598-1.298-.16-.16-.16-.419 0-.578.16-.16.418-.16.578 0 .713.713 2.014 1.058 3.971 1.058l.012.002.012-.002c1.957 0 3.258-.345 3.974-1.058.159-.16.418-.16.577 0 .16.159.16.418-.002.578zm-.158-2.359c-.822 0-1.49-.668-1.49-1.488 0-.821.668-1.489 1.49-1.489.82 0 1.488.668 1.488 1.489 0 .82-.668 1.488-1.488 1.488z"/></svg>
